<?xml version="1.0" standalone="no"?>
<!DOCTYPE svg PUBLIC "-//W3C//DTD SVG 20010904//EN"
 "http://www.w3.org/TR/2001/REC-SVG-20010904/DTD/svg10.dtd">
<svg version="1.0" xmlns="http://www.w3.org/2000/svg"
 width="512.000000pt" height="512.000000pt" viewBox="0 0 512.000000 512.000000"
 preserveAspectRatio="xMidYMid meet">
<metadata>
Created by potrace 1.11, written by Peter Selinger 2001-2013
</metadata>
<g transform="translate(0.000000,512.000000) scale(0.100000,-0.100000)"
fill="#000000" stroke="none">
<path d="M430 5013 c-146 -26 -305 -145 -370 -276 -59 -121 -59 -122 -60 -703
l0 -532 67 -15 c38 -9 129 -30 203 -47 74 -18 173 -41 220 -52 47 -11 92 -21
100 -23 8 -2 66 -15 129 -29 62 -14 118 -26 122 -26 5 0 9 195 9 433 l0 433
305 0 c206 0 305 -3 306 -10 0 -14 0 -1122 0 -1153 l-1 -23 -290 0 c-269 0
-290 -1 -291 -17 0 -24 0 -738 0 -788 l1 -40 290 0 290 1 1 -51 c1 -65 0
-1116 0 -1132 -1 -10 -69 -13 -306 -13 l-305 0 0 441 c0 415 -1 440 -17 435
-22 -7 -218 -53 -253 -60 -14 -2 -83 -18 -155 -35 -72 -17 -195 -46 -275 -64
l-145 -34 -2 -534 c-2 -410 1 -547 11 -590 36 -157 156 -301 301 -364 101 -43
119 -44 831 -45 656 0 782 5 808 31 6 5 16 9 24 9 22 0 123 65 166 107 57 55
113 146 137 222 25 77 27 202 29 1236 1 508 -2 609 -15 658 -20 78 -47 128
-112 215 l-55 72 40 44 c68 74 108 147 133 246 9 34 11 777 5 1365 -3 273 -4
282 -30 359 -56 164 -163 269 -346 338 -28 10 -187 13 -755 14 -396 1 -731 0
-745 -3z"/>
<path d="M2815 2563 l0 -2458 940 0 c877 0 944 1 997 18 120 38 249 148 306
260 65 127 61 -23 61 2172 1 2205 5 2064 -62 2188 -41 79 -143 180 -218 217
-119 61 -97 59 -1104 60 l-920 0 0 -2457z m1455 0 l0 -1613 -305 0 -305 0 -1
23 c0 29 0 3144 0 3178 l1 25 305 0 305 0 0 -1613z"/>
</g>
</svg>
