<?xml version="1.0" encoding="UTF-8" standalone="no"?>
<!-- Created with Inkscape (http://www.inkscape.org/) -->
<svg xmlns:dc="http://purl.org/dc/elements/1.1/" xmlns:cc="http://creativecommons.org/ns#" xmlns:rdf="http://www.w3.org/1999/02/22-rdf-syntax-ns#" xmlns:svg="http://www.w3.org/2000/svg" xmlns="http://www.w3.org/2000/svg" xmlns:sodipodi="http://sodipodi.sourceforge.net/DTD/sodipodi-0.dtd" xmlns:inkscape="http://www.inkscape.org/namespaces/inkscape" width="512" height="512" viewBox="0 0 479.99999 480" id="svg2" inkscape:version="0.92.3 (2405546, 2018-03-11)" sodipodi:docname="3D Repo Icon.svg"><defs id="defs4"/><metadata id="metadata7"/><g inkscape:label="Layer 1" inkscape:groupmode="layer" id="layer1" transform="translate(-336.92772,-220.64793)"><g transform="matrix(16.474678,0,0,16.474678,-10156.251,-11557.713)" id="layer1-8" inkscape:label="Layer 1" style="fill:#3452ff;fill-opacity:1"><g style="fill:#3452ff;fill-opacity:1" inkscape:label="Layer 1" id="layer1-9" transform="translate(629.29943,706.55985)"><g transform="translate(-90.714286,-240.71429)" style="font-style:normal;font-weight:normal;font-size:40px;line-height:125%;font-family:sans-serif;letter-spacing:0px;word-spacing:0px;fill:#3452ff;fill-opacity:1;stroke:none;stroke-width:1px;stroke-linecap:butt;stroke-linejoin:miter;stroke-opacity:1" id="flowRoot3363"><path d="m 111.46258,252.61951 c 0,-1.64 -1.32,-2.96 -2.96,-2.96 h -7.2 c -1.600002,0 -2.960002,1.32 -2.960002,2.96 v 5.68 l 4.840002,1.12 v -4.96 h 3.48 v 6.76 h -3.32 v 4.8 h 3.32 v 6.8 h -3.48 v -5 l -4.840002,1.12 v 5.76 c 0,1.6 1.36,2.96 2.960002,2.96 h 7.2 c 1.64,0 2.96,-1.36 2.96,-2.96 l 0.04,-9.16 c 0,-1.04 -0.48,-1.76 -1.08,-2.4 0.68,-0.56 1.08,-1.36 1.08,-2.28 z" style="font-style:normal;font-variant:normal;font-weight:normal;font-stretch:normal;font-family:'Sullivan fill';-inkscape-font-specification:'Sullivan fill';fill:#3452ff;fill-opacity:1;stroke:none" id="path3353" inkscape:connector-curvature="0"/><path d="m 114.3582,249.65951 v 28 h 10.16 c 1.6,0 2.96,-1.36 2.96,-2.96 v -22.08 c 0,-1.64 -1.36,-2.96 -2.96,-2.96 z m 8.28,23.16 h -3.48 v -18.36 h 3.48 z" style="font-style:normal;font-variant:normal;font-weight:normal;font-stretch:normal;font-family:'Sullivan fill';-inkscape-font-specification:'Sullivan fill';fill:#3452ff;fill-opacity:1;stroke:none" id="path3355" inkscape:connector-curvature="0"/></g></g></g></g></svg>